<svg id="Layer_1" data-name="Layer 1" xmlns="http://www.w3.org/2000/svg" viewBox="0 0 273.67 273.35"><defs><style>.cls-1{fill:#f37979;}.cls-2{font-size:24.03px;font-family:Roboto-Bold, Roboto;font-weight:700;}.cls-2,.cls-4{fill:#9bc2be;}.cls-3{letter-spacing:-0.03em;}</style></defs><rect class="cls-1" width="273.67" height="273.35" rx="24.45"/><text class="cls-2" transform="translate(51.65 236.05)">Ch2.<tspan class="cls-3" x="49.94" y="0"> </tspan><tspan x="55.22" y="0">Templates</tspan></text><path class="cls-4" d="M46.5,206V26h2.62q66.09,0,132.18,0a6.86,6.86,0,0,1,3.54,1.06Q205,41.73,225,56.51a3.48,3.48,0,0,1,1.49,2.41q.1,72.93.06,145.84V206ZM60.25,196h152.4V65.61h-37.6V36.11H60.25ZM203.66,55.51,189.13,44.07V55.51Z" transform="translate(0.22 0.16)"/><path class="cls-4" d="M197.73,165.94v9.89H75.29v-9.89Z" transform="translate(0.22 0.16)"/><path class="cls-4" d="M75.31,77.88H197.67v9.79H75.31Z" transform="translate(0.22 0.16)"/><path class="cls-4" d="M75.29,121.84h122.3v9.87H75.29Z" transform="translate(0.22 0.16)"/><path class="cls-4" d="M75.24,109.77V99.9h81.48v9.87Z" transform="translate(0.22 0.16)"/><path class="cls-4" d="M156.79,144v9.82H75.32V144Z" transform="translate(0.22 0.16)"/></svg>