<svg id="Layer_1" data-name="Layer 1" xmlns="http://www.w3.org/2000/svg" viewBox="0 0 273.67 273.35"><defs><style>.cls-1{fill:#f37979;}.cls-2{font-size:24.03px;font-family:Roboto-Bold, Roboto;font-weight:700;}.cls-2,.cls-4{fill:#9bc2be;}.cls-3{letter-spacing:-0.01em;}</style></defs><rect class="cls-1" width="273.67" height="273.35" rx="24.45"/><text class="cls-2" transform="translate(70.26 237.82)">Ch8. G<tspan class="cls-3" x="72.3" y="0">r</tspan><tspan x="80.71" y="0">aphs</tspan></text><path class="cls-4" d="M130.49,121.72H203c4.58,0,5.65,1.2,5.5,5.73-.66,19.66-7.32,37-20.27,51.78a79.72,79.72,0,0,1-47.08,26.67C97.76,213.66,57.58,185.76,47.37,145,37.92,107.24,57.47,66.8,93,50.94a84,84,0,0,1,32.4-7.33c3.72-.1,5.09,1.21,5.09,5q0,35.19,0,70.39Zm70.27,7.43c-.56,0-1.13-.1-1.7-.1q-34.59,0-69.18,0a4.62,4.62,0,0,0-2.87,1.2q-18.53,17.37-36.92,34.85Q82.77,172.07,75.47,179c19.92,19.76,52.13,27.2,80.84,14.69C187.69,180,200.77,149.93,200.76,129.15ZM70.37,173.59c.33-.28.59-.47.82-.69q25.44-24,50.83-48.11a4.11,4.11,0,0,0,1-2.71q.09-34.32,0-68.64V51.37c-21.93.22-50.35,13.8-63.81,42.85C46.45,121.93,52.49,153.48,70.37,173.59Z" transform="translate(0.22 0.16)"/><path class="cls-4" d="M185.31,109.61H148.08c-4.42,0-5.5-1.09-5.5-5.59V30.51c0-5.76.73-6.47,6.43-6.29a81.58,81.58,0,0,1,79,80.63c0,3.38-1.23,4.75-4.68,4.76Q204.32,109.63,185.31,109.61ZM150,31.81v2.1q0,33,0,66.06c0,1.8.48,2.29,2.28,2.29q33-.09,66,0h2.1C219.58,65.13,187.24,32.59,150,31.81Z" transform="translate(0.22 0.16)"/></svg>