<svg id="Layer_1" data-name="Layer 1" xmlns="http://www.w3.org/2000/svg" viewBox="0 0 273.67 273.35"><defs><style>.cls-1{fill:#f37979;}.cls-2{font-size:24.03px;font-family:Roboto-Bold, Roboto;font-weight:700;}.cls-2,.cls-5{fill:#9bc2be;}.cls-3{letter-spacing:-0.01em;}.cls-4{letter-spacing:0em;}</style></defs><rect class="cls-1" width="273.67" height="273.35" rx="24.45"/><text class="cls-2" transform="translate(74.54 238.1)">Ch6. <tspan class="cls-3" x="55.93" y="0">F</tspan><tspan class="cls-4" x="68.85" y="0">orms</tspan></text><path class="cls-5" d="M181.59,86.15l12.78-13.42c7.46-7.82,16.67-7.84,24.1-.06Q220.74,75,223,77.41c6.66,7,6.7,17.07,0,24.09q-19.95,21-40,41.88a5,5,0,0,0-1.47,3.84c.05,11.79,0,23.59,0,35.39,0,13.24-9.08,23.36-21.69,24.23-.73,0-1.46.07-2.19.07q-44.43,0-88.85,0c-9,0-16-3.72-20.69-11.78A23.17,23.17,0,0,1,45,183.21q0-49.83,0-99.68A7,7,0,0,1,47.31,78Q75.06,52,102.82,26A7.18,7.18,0,0,1,107.25,24c17.9-.09,35.81-.28,53.7.16,11.19.27,20.54,11.07,20.62,22.84.08,12.14,0,24.29,0,36.44Zm-126,2c0,.87-.08,1.42-.08,2q0,46.05,0,92.12c0,8.19,5.24,13.58,13.08,13.58h89c8.4,0,13.43-5.24,13.45-14q0-11.62,0-23.24c0-.67-.06-1.34-.11-2.36-.75.73-1.24,1.18-1.7,1.66-4,4.24-8,8.54-12.18,12.69a8.85,8.85,0,0,1-3.71,2.22c-8.71,2.43-17.46,4.75-26.21,7-4.88,1.27-8.13-2.24-6.89-7.37,2.16-8.9,4.27-17.82,6.58-26.68a11.76,11.76,0,0,1,2.66-4.94c13.34-14.14,26.78-28.17,40.15-42.28a5,5,0,0,0,1.36-3q.12-23.55,0-47.11C171,40.32,165.84,35,158.11,35q-21.86,0-43.72,0h-2.25v2.55c0,9.08.06,18.15,0,27.22-.13,13-10.19,23.4-22.62,23.43-10.52,0-21,0-31.55,0ZM191.34,91.1A16.87,16.87,0,0,1,190,92.92q-25.4,26.68-50.84,53.3a11,11,0,0,0-3,5.44c-1.12,5.05-2.39,10.05-3.67,15.36,5.45-1.46,10.59-2.77,15.69-4.25a7.3,7.3,0,0,0,3.2-1.86q26-27.1,51.84-54.31c.51-.53,1-1.09,1.38-1.53ZM101.66,41.84,64.17,77.07c9.15,0,17.78.3,26.38-.1,6.46-.31,10.94-5.67,11.08-12.5C101.78,57.15,101.66,49.83,101.66,41.84Zm110.72,55a56.19,56.19,0,0,0,4-4.15,5.24,5.24,0,0,0-.21-6.71c-2-2.3-4.13-4.53-6.33-6.64a4.86,4.86,0,0,0-6.73,0c-1.35,1.22-2.62,2.56-3.82,3.75Z" transform="translate(0.22 0.16)"/></svg>