<svg id="Layer_1" data-name="Layer 1" xmlns="http://www.w3.org/2000/svg" viewBox="0 0 273.67 273.35"><defs><style>.cls-1{fill:#f37979;}.cls-2{font-size:24.03px;font-family:Roboto-Bold, Roboto;font-weight:700;}.cls-2,.cls-3{fill:#9bc2be;}</style></defs><rect class="cls-1" width="273.67" height="273.35" rx="24.45"/><text class="cls-2" transform="translate(71.68 235.34)">Ch5. Deploy</text><path class="cls-3" d="M45,118.15a91.5,91.5,0,0,1,183,0c.07,50.52-41.12,91.7-91.57,91.57A91.55,91.55,0,0,1,45,118.15Zm67.11-20.49c-1.94-2-3.83-3.8-5.57-5.76a3,3,0,0,1-.64-2.19A5.8,5.8,0,1,0,94.43,88.2c-.27,3.27,2.52,6.56,5.81,6,2.47-.4,3.56.79,4.91,2.17,1.19,1.22,2.37,2.47,3.64,3.61a1.68,1.68,0,0,1,.39,2.47,40.64,40.64,0,0,0-2.76,6.35c-.76,2.28-1.16,4.68-1.74,7.12-2.76,0-5.51,0-8.25,0a2.11,2.11,0,0,1-1.32-.93,5.85,5.85,0,0,0-6.65-2.64,5.75,5.75,0,0,0,0,11c2.61.77,5-.2,6.65-2.59a2.35,2.35,0,0,1,1.49-1c2.32-.1,4.65-.11,7,0a1.85,1.85,0,0,1,1.29,1.21,31.57,31.57,0,0,0,4.06,12.8,1.57,1.57,0,0,1-.37,2.32c-1.91,1.81-3.76,3.68-5.58,5.57a2.15,2.15,0,0,1-2.35.77A5.34,5.34,0,0,0,95,144.23a5.86,5.86,0,0,0,6.81,9.17,5.8,5.8,0,0,0,3.28-6.5,2.55,2.55,0,0,1,.22-1.82c2.11-2.27,4.33-4.43,6.61-6.72,6.54,7.73,14.73,11.71,24.62,11.7s18-4.16,24.44-11.53a2.19,2.19,0,0,1,.47.25c1.87,1.84,3.68,3.75,5.61,5.53a2.66,2.66,0,0,1,.87,2.87,5.61,5.61,0,0,0,4.05,6.49,5.82,5.82,0,0,0,7-3.51c1.67-4.53-1.82-8.55-6.71-7.8a2.54,2.54,0,0,1-1.87-.42q-3.15-2.94-6.08-6.1a2,2,0,0,1-.25-1.79,30.85,30.85,0,0,0,4-13c.07-1,.45-1.38,1.46-1.35,2.14.06,4.29-.07,6.42.07a3,3,0,0,1,2,1.09,5.83,5.83,0,0,0,5.65,2.68,5.27,5.27,0,0,0,4.67-4.47,6,6,0,0,0-3.75-6.62,5.81,5.81,0,0,0-6.66,2.15c-.36.5-.85,1.27-1.3,1.29-2.91.12-5.82.06-8.47.06-.65-2.78-1.05-5.33-1.87-7.73s-2.09-4.76-3.24-7.28c1.92-1.9,3.94-3.85,5.91-5.86a2.3,2.3,0,0,1,2.51-.82,5.56,5.56,0,0,0,6.23-3.1,5.88,5.88,0,0,0-1-6.78,6.12,6.12,0,0,0-7-1,5.79,5.79,0,0,0-2.84,6.37,2.47,2.47,0,0,1-.29,1.8c-1.91,2.11-3.93,4.12-5.92,6.17C147.42,83.05,125.34,82.92,112.11,97.66Z" transform="translate(0.22 0.16)"/><path class="cls-3" d="M153,109.81c-.55.79-.94,1.92-1.7,2.33q-6.89,3.75-13.94,7.19a3.43,3.43,0,0,1-2.59-.11c-4.36-2.15-8.65-4.46-13-6.66-1.24-.63-2.12-1.41-2.11-2.89s1-2.3,2.33-2.89c4.28-1.91,8.48-4,12.78-5.84a3.89,3.89,0,0,1,2.77,0c4.4,1.9,8.73,4,13.11,6A3.62,3.62,0,0,1,153,109.81Z" transform="translate(0.22 0.16)"/><path class="cls-3" d="M152.94,118.39c-.35.43-.83,1.54-1.66,2q-6.72,3.69-13.61,7a3.85,3.85,0,0,1-2.92-.12c-4.32-2.11-8.54-4.41-12.84-6.56a3.14,3.14,0,0,1-2.11-3.09c.09-1.7,1.4-2.49,2.76-3.09.34-.15.94.09,1.35.29,3.31,1.68,6.63,3.34,9.89,5.11a4.6,4.6,0,0,0,4.82,0c3.3-1.81,6.67-3.52,10-5.2C150.29,114,152.84,115.82,152.94,118.39Z" transform="translate(0.22 0.16)"/><path class="cls-3" d="M152.9,126.72a6.67,6.67,0,0,1-1.74,1.93c-4.43,2.42-8.92,4.76-13.46,7a3.82,3.82,0,0,1-2.91-.1c-4.33-2.11-8.54-4.43-12.85-6.57-1.35-.68-2.2-1.56-2.14-3.07.06-1.72,1.39-2.49,2.73-3.13a1.88,1.88,0,0,1,1.34.26c3.36,1.71,6.72,3.44,10,5.21a4.55,4.55,0,0,0,4.67-.06c3.31-1.81,6.67-3.52,10-5.2C150.33,122.11,153,124.1,152.9,126.72Z" transform="translate(0.22 0.16)"/></svg>