<svg id="Layer_1" data-name="Layer 1" xmlns="http://www.w3.org/2000/svg" viewBox="0 0 273.67 273.35"><defs><style>.cls-1{fill:#f1b84a;}.cls-2,.cls-3{fill:#9bc2be;}.cls-3{font-size:25.11px;font-family:Roboto-Bold, Roboto;font-weight:700;}</style></defs><rect class="cls-1" width="273.67" height="273.35" rx="24.45"/><path class="cls-2" d="M76.83,60a123.13,123.13,0,0,1,24,37.47,77.42,77.42,0,0,1,3.47,10.26c1,4.25-1,10.57-8.62,12.23-13.35,2.92-31.8-1.27-37.6-17.31A105.06,105.06,0,0,1,51.59,68.4c-.09-5.48-.15-11-.42-16.43a31.83,31.83,0,0,0-3.82-13.4c-.18-.34-.31-.7-.63-1.42,4.88,1.24,9.45,2.3,14,3.56,15.1,4.24,29.34,10,42,18.46,10.77,7.19,19.84,15.69,25.14,26.7a44.57,44.57,0,0,1,3.58,11.57c1.09,6.15-2.21,10.79-8.47,13.38-3.54,1.47-4.39,2.94-3.87,6.33,1.44,9.52,2.22,19.12,3.27,28.69a4,4,0,0,0,.2.62h13.66c6.45,0,9.64,2.76,9.64,8.33v44.3c0,5.6-3.17,8.37-9.57,8.37H122.11c-5.36,0-8.74-2.88-8.75-7.5,0-15.33,0-30.66,0-46a7.11,7.11,0,0,1,3.77-6.42,2.26,2.26,0,0,0,1-1.58c.74-28.12-8.63-53.29-29.29-75.11-3.67-3.87-7.68-7.5-11.53-11.23Z"/><path class="cls-2" d="M226.72,170v29.37c0,5.25-3.28,8.11-9.29,8.11H203.12c-5.49,0-8.83-2.89-8.83-7.59q0-29.88,0-59.75c0-4.82,3.3-7.67,8.91-7.7h14.5c5.64,0,9,3,9,7.86Q226.74,155.13,226.72,170Z"/><path class="cls-2" d="M148.77,44.9c-3.78,4.55-7.87,8.93-11.24,13.7s-6,9.94-8.89,14.71L116.35,60.59a46.58,46.58,0,0,1,8.45-10.44c9.91-9.4,22.26-15.58,35.78-20.17,3.37-1.15,6.83-2.11,10.76-3.32-3.79,7.62-2.76,15.11-2.32,22.55a70.81,70.81,0,0,1-3.44,26.51c-4,12.15-18.2,15.13-27.34,12.84a3.68,3.68,0,0,1-2-1.69C135,84.71,134,82.49,133,80.25a3.5,3.5,0,0,1-.24-2.2,86.1,86.1,0,0,1,15.38-31l1.26-1.67Z"/><path class="cls-2" d="M128.94,139.38c-.81-7.29-1.57-14.35-2.39-21.41-.11-1,.31-1.5,1.16-2.19,3-2.46,6-1.66,9-.18a13.07,13.07,0,0,1,7.34,8.83,2.42,2.42,0,0,0,1.43,1.46c4.21,1.36,8.46,2.66,12.74,3.86a3.34,3.34,0,0,0,2.36-.38A16.79,16.79,0,0,1,174,126.91a3,3,0,0,0,2.12-.45q9.66-8.1,19.18-16.34a2.46,2.46,0,0,0,.64-2c-.8-5.13.83-9.47,5.66-12.6a15.65,15.65,0,0,1,15.64-1.1c5.32,2.41,8,6.45,7.88,11.63-.15,8.1-9.25,14-18.25,12a3,3,0,0,0-3,.69c-6.16,5.33-12.42,10.58-18.58,15.92a2.54,2.54,0,0,0-.83,2.1c1.43,6.82-3.57,13.49-11.34,15s-15.4-2.64-17.35-9.36a2.49,2.49,0,0,0-2-1.92c-4.26-1.24-8.52-2.51-12.74-3.85a2.87,2.87,0,0,0-2.78.38A14.78,14.78,0,0,1,128.94,139.38Z"/><path class="cls-2" d="M186.17,184c0,5.37,0,10.73,0,16.1,0,4.37-3.44,7.32-8.51,7.35s-10.18,0-15.27,0-8.63-3-8.64-7.48q0-16,0-32c0-4.37,3.51-7.39,8.49-7.41,5.16,0,10.31,0,15.47,0s8.45,3,8.46,7.38C186.19,173.28,186.17,178.64,186.17,184Z"/><path class="cls-2" d="M105.29,187.59c0,4.2,0,8.39,0,12.58s-3.47,7.24-8.24,7.28q-7.94.08-15.86,0c-4.88,0-8.32-3.11-8.34-7.38q0-12.58,0-25.17c0-4.35,3.49-7.32,8.55-7.33s10.31,0,15.47,0c4.93,0,8.39,3,8.41,7.27S105.29,183.34,105.29,187.59Z"/><path class="cls-2" d="M110.05,129c.27,4,.54,7.64.7,11.26,0,.45-.59,1-1,1.38a2,2,0,0,1-.85.37c-3.17,1-5.1,2.42-6,5.7-2,7.26-11.46,10.85-19.4,8s-11.36-10.84-7.58-17.46,13.41-9.13,20.74-5.21a3.43,3.43,0,0,0,3.47.15C103.23,131.77,106.44,130.5,110.05,129Z"/><text class="cls-3" transform="translate(64.04 237.37)">Spot-GO App</text></svg>