<svg id="Layer_1" data-name="Layer 1" xmlns="http://www.w3.org/2000/svg" viewBox="0 0 273.67 273.35"><defs><style>.cls-1{fill:#f37979;}.cls-2{font-size:24.03px;font-family:Roboto-Bold, Roboto;font-weight:700;}.cls-2,.cls-4{fill:#9bc2be;}.cls-3{letter-spacing:-0.01em;}</style></defs><rect class="cls-1" width="273.67" height="273.35" rx="24.45"/><text class="cls-2" transform="translate(70.26 237.09)">Ch3. N<tspan class="cls-3" x="72.89" y="0">a</tspan><tspan x="85.6" y="0">vbar</tspan></text><path class="cls-4" d="M45,116.36q0-33.21,0-66.43c0-11.22,6.09-20.16,16.25-23.56A28.08,28.08,0,0,1,70,25q66.63-.12,133.26,0C217.67,25,228,35.41,228,49.82V183.08c0,14.43-10.39,24.85-24.78,24.85H70c-14.44,0-24.88-10.29-24.93-24.73C45,160.92,45,138.64,45,116.36Zm9.65-43.08v109.3c0,9.69,6,15.68,15.7,15.68q66.12,0,132.24,0a19.93,19.93,0,0,0,4.7-.43c7-1.72,11-7.32,11-15.37q0-53.43,0-106.87c0-.73-.06-1.46-.1-2.3Zm163.67-9.84c0-3.51,0-6.8,0-10.09a39,39,0,0,0-.44-7.59c-1.54-7-7.35-11.16-15.06-11.16H70.21c-.48,0-1,0-1.44,0A14.17,14.17,0,0,0,55,46.59a59,59,0,0,0-.36,8.21c0,2.86,0,5.72,0,8.64Z" transform="translate(0.22 0.16)"/><path class="cls-4" d="M74,53.93c-1.58,0-3.16.07-4.74,0a4.87,4.87,0,1,1,0-9.73c3.15-.09,6.32-.1,9.47,0a4.87,4.87,0,0,1,0,9.73C77.15,54,75.57,53.93,74,53.93Z" transform="translate(0.22 0.16)"/><path class="cls-4" d="M102.9,44.16c1.51,0,3,0,4.54,0a4.88,4.88,0,1,1-.07,9.75c-3,.08-6.05.07-9.07,0a5,5,0,0,1-5.16-4.8c0-2.73,2.17-4.86,5.23-4.95C99.88,44.12,101.39,44.16,102.9,44.16Z" transform="translate(0.22 0.16)"/><path class="cls-4" d="M199,53.94c-1.51,0-3,.05-4.53,0a4.84,4.84,0,0,1-5-4.94,4.77,4.77,0,0,1,4.88-4.8q4.73-.15,9.47,0A4.76,4.76,0,0,1,208.72,49a4.82,4.82,0,0,1-5,4.93C202.17,54,200.59,53.94,199,53.94Z" transform="translate(0.22 0.16)"/></svg>