<svg id="Layer_1" data-name="Layer 1" xmlns="http://www.w3.org/2000/svg" viewBox="0 0 273.67 273.35"><defs><style>.cls-1{fill:#f37979;}.cls-2{font-size:24.03px;font-family:Roboto-Bold, Roboto;font-weight:700;}.cls-2,.cls-3{fill:#9bc2be;}</style></defs><rect class="cls-1" width="273.67" height="273.35" rx="24.45"/><text class="cls-2" transform="translate(69.68 236.28)">Ch4. Header</text><path class="cls-3" d="M136.5,208.73q-35.61,0-71.23,0c-10,0-18-7-19.92-17.17a26.26,26.26,0,0,1-.33-4.78q0-69.54,0-139.08c0-10.89,6-19.08,15.7-21.41a20.89,20.89,0,0,1,4.72-.53q71.07,0,142.13,0c11.31,0,19.85,8.55,20.41,20.34,0,.53,0,1.07,0,1.6q0,69.54,0,139.08c0,9.18-3.78,15.94-11.69,20a19.4,19.4,0,0,1-9.09,1.94Zm83.42-108.18V67.47H53.09v33.08c3.79,0,7.47,0,11.15,0,2.81,0,4.73,1.77,4.7,4.25S67,109,64.18,109c-.46,0-.91,0-1.37,0H53v1.92q0,38,0,76c0,8.13,5,13.34,12.77,13.34,47.15,0,94.29-.06,141.43.08,6.85,0,12.92-5.17,12.88-13.54-.11-25.28,0-50.57,0-75.85v-2c-3.93,0-7.62,0-11.31,0a4.3,4.3,0,0,1-3.87-1.81,4.21,4.21,0,0,1,3.51-6.63C212.15,100.53,216,100.55,219.92,100.55ZM53.25,58.91H220c0-4.5,0-8.88,0-13.27a10.14,10.14,0,0,0-.5-2.6c-1.59-5.53-6.06-8.84-12-8.85H108.67c-14.65,0-29.3,0-43.95,0A11.39,11.39,0,0,0,53.35,44.38C52.86,49.11,53.25,54,53.25,58.91Z" transform="translate(0.22 0.16)"/><path class="cls-3" d="M132.46,152.69v-2.25q0-14.16,0-28.32c0-2.76,1.38-4.61,3.54-4.86,2.61-.29,4.53,1.65,4.53,4.72q0,14.16,0,28.32v2.24a14.3,14.3,0,0,0,1.12-.92c2.5-2.6,5-5.22,7.48-7.8,2-2,4.33-2.2,6-.47s1.61,4.29-.31,6.31q-7.56,8-15.18,15.87c-2.15,2.22-4.26,2.19-6.41,0q-7.6-7.91-15.18-15.87c-1.85-1.95-2-4.45-.38-6.17s4.09-1.73,6,.26c2.43,2.49,4.83,5,7.24,7.54C131.37,151.66,131.78,152,132.46,152.69Z" transform="translate(0.22 0.16)"/><path class="cls-3" d="M96.7,109c-2.5,0-5,0-7.5,0a4.22,4.22,0,1,1,0-8.43c5,0,10,0,15,0a4.08,4.08,0,0,1,4.39,4.15c0,2.53-1.71,4.24-4.44,4.28C101.7,109,99.2,109,96.7,109Z" transform="translate(0.22 0.16)"/><path class="cls-3" d="M176.38,100.55c2.44,0,4.89,0,7.33,0,2.67,0,4.55,1.82,4.53,4.24s-1.89,4.18-4.58,4.2c-4.94,0-9.88,0-14.83,0-2.74,0-4.49-1.72-4.48-4.24s1.76-4.17,4.53-4.2C171.38,100.53,173.88,100.55,176.38,100.55Z" transform="translate(0.22 0.16)"/><path class="cls-3" d="M136.5,100.55c2.5,0,5,0,7.5,0a4.22,4.22,0,1,1,0,8.42q-7.49.06-15,0a4.22,4.22,0,1,1,0-8.42C131.5,100.52,134,100.55,136.5,100.55Z" transform="translate(0.22 0.16)"/><path class="cls-3" d="M64.94,50.73a4.15,4.15,0,1,1,4-4.17A4.1,4.1,0,0,1,64.94,50.73Z" transform="translate(0.22 0.16)"/><path class="cls-3" d="M80.79,42.44a4.15,4.15,0,1,1-3.93,4.22A4,4,0,0,1,80.79,42.44Z" transform="translate(0.22 0.16)"/><path class="cls-3" d="M96.71,42.44a4.15,4.15,0,1,1-3.94,4.21A4,4,0,0,1,96.71,42.44Z" transform="translate(0.22 0.16)"/></svg>