<?xml version="1.0" encoding="UTF-8"?><svg id="a" xmlns="http://www.w3.org/2000/svg" viewBox="0 0 273.67 273.35"><defs><style>.b,.c{fill:#9bc2be;}.d{fill:#f1b84a;}.c{font-family:Roboto-Bold, Roboto;font-size:24.03px;}</style></defs><rect class="d" width="273.67" height="273.35" rx="24.45" ry="24.45"/><g><text class="c" transform="translate(72.24 238.4)"><tspan x="0" y="0">Dashboards</tspan></text><g><path class="b" d="M101.88,54.84c-.1,17.49-12.38,31.15-27.9,31.04-15.06-.1-27.33-14.2-27.25-31.32,.07-17.17,12.65-30.91,28.19-30.79,14.79,.11,27.06,14.25,26.96,31.07Zm-28.35-28.28c-10.13-1.23-21.64,9.52-24.03,22.2-2.7,14.31,4.54,28.6,16.85,33.24,11.32,4.26,23.52-1.47,28.12-10.4-5.52-4.54-10.9-9.34-16.63-13.55-3.33-2.45-4.89-5.14-4.39-9.68,.37-3.42,.07-6.94,.07-10.42v-11.38Z"/><path class="b" d="M97.4,119.69c-.93,.28-1.83,.52-2.71,.81-14.4,4.66-28.8,9.32-43.2,13.98-.22,.07-.43,.2-.65,.26-1.49,.4-3.07,.7-3.62-1.47-.53-2.12,.8-2.94,2.34-3.43,4.21-1.36,8.42-2.72,12.63-4.08,11.09-3.57,22.16-7.19,33.28-10.66,1.3-.41,2.92-.38,4.19,.11,14.85,5.66,29.67,11.42,44.47,17.24,1.47,.58,2.57,.42,3.88-.44,13.81-8.98,27.66-17.87,41.45-26.86,1.35-.88,2.2-.8,3.43,.26,10.52,9.09,21.09,18.1,31.65,27.14,.37,.32,.74,.63,1.09,.97,1.09,1.05,1.58,2.54,.44,3.56-.72,.64-2.45,.81-3.19,.26-2.9-2.13-5.58-4.63-8.34-7-7.3-6.25-14.63-12.47-21.89-18.79-1.29-1.12-2.2-1.2-3.64-.26-13.39,8.75-26.84,17.36-40.24,26.09-1.53,1-2.82,1.18-4.51,.52-14.8-5.84-29.64-11.58-44.46-17.35-.8-.31-1.6-.58-2.4-.87Z"/><path class="b" d="M147.08,28.15h65.09v11.72h-65.09v-11.72Z"/><path class="b" d="M147.07,70.03h54.11v11.68h-54.11v-11.68Z"/><path class="b" d="M113.18,162.48v41.22h-10.33v-41.22h10.33Z"/><path class="b" d="M158.39,203.66v-41.17h10.3v41.17h-10.3Z"/><path class="b" d="M205.82,203.76h-10.31c-.05-.8-.15-1.55-.15-2.31,0-12.17,.04-24.33-.05-36.5-.02-2.24,.64-2.84,2.51-2.72,2.6,.16,5.21,.04,8,.04v41.49Z"/><path class="b" d="M76.12,171.25v32.45h-10.33v-32.45h10.33Z"/><path class="b" d="M147.05,60.72v-11.6h27.62v11.6h-27.62Z"/><path class="b" d="M94.68,172.51v31.16h-10.33v-31.16h10.33Z"/><path class="b" d="M131.68,203.77h-10.28v-31.16h10.28v31.16Z"/><path class="b" d="M187.34,172.57v31.06h-10.38v-31.06h10.38Z"/><path class="b" d="M214.11,172.52h10.31v31.15h-10.31v-31.15Z"/><path class="b" d="M139.91,181.25h10.27v22.44h-10.27v-22.44Z"/><path class="b" d="M47.1,184.13h10.62v19.56h-10.62v-19.56Z"/></g></g></svg>