<svg id="Layer_1" data-name="Layer 1" xmlns="http://www.w3.org/2000/svg" viewBox="0 0 273.67 273.35"><defs><style>.cls-1{fill:#f37979;}.cls-2{font-size:24.03px;font-family:Roboto-Bold, Roboto;font-weight:700;}.cls-2,.cls-4{fill:#9bc2be;}.cls-3{letter-spacing:-0.01em;}</style></defs><rect class="cls-1" width="273.67" height="273.35" rx="24.45"/><text class="cls-2" transform="translate(53.59 239.56)">Ch7. Calcula<tspan class="cls-3" x="136.14" y="0">t</tspan><tspan x="143.91" y="0">or</tspan></text><path class="cls-4" d="M136.42,205.46H54.88c-6.55,0-9.88-3.3-9.88-9.8V32.26c0-6.44,3.33-9.8,9.72-9.8H218.28c6.4,0,9.72,3.35,9.72,9.8v163.4c0,6.49-3.34,9.8-9.88,9.8Zm73.17-100.72V40.88H145.73v63.86Zm-82.35,0V40.88H63.38v63.86Zm0,18.48H63.42v63.86h63.86Zm82.36,0H145.77v63.86h63.87Z" transform="translate(0.22 0.16)"/><path class="cls-4" d="M177.71,81.93c-4.63,0-9.26,0-13.89,0-5.47,0-9-3.66-9-9.19s3.56-9.07,8.95-9.08q13.89,0,27.77,0c5.48,0,9,3.65,9,9.18s-3.57,9-9,9.1H177.71Z" transform="translate(0.22 0.16)"/><path class="cls-4" d="M104.47,63.64c1.91,0,3.59,0,5.28,0,5,.13,8.43,3.87,8.44,9.09s-3.41,9-8.37,9.17c-1.72,0-3.45,0-5.36,0,0,1.77,0,3.38,0,5-.08,5.21-3.77,8.73-9.14,8.73s-9.06-3.53-9.14-8.74c0-1.57,0-3.15,0-5-1.5,0-2.94,0-4.39,0-8.17.16-11-7.48-8.51-13.31,1.37-3.21,4-4.74,7.46-5,1.73-.11,3.47,0,5.44,0,0-1.6,0-3.1,0-4.6,0-5.6,3.61-9.15,9.23-9.14s9,3.6,9.06,9.15Z" transform="translate(0.22 0.16)"/><path class="cls-4" d="M95.4,167.81c-1.29,1.33-2.29,2.47-3.4,3.49a9.39,9.39,0,0,1-9.65,2.36,8.62,8.62,0,0,1-6.13-7,8.53,8.53,0,0,1,2.5-7.75c1.19-1.26,2.48-2.41,4-3.81-1.39-1.31-2.61-2.38-3.75-3.54-3.76-3.86-3.81-9.11-.16-12.83s9-3.83,13,0c1.17,1.12,2.22,2.37,3.78,4.05a49.44,49.44,0,0,1,3.94-4.49c2.86-2.54,6.17-3.19,9.68-1.47a9,9,0,0,1,5.43,8.59,8.64,8.64,0,0,1-2.73,6.1c-1.15,1.16-2.35,2.26-3.69,3.54,1.36,1.38,2.63,2.62,3.83,3.92a8.75,8.75,0,0,1,.76,11.62,9.42,9.42,0,0,1-13.61,1.18C97.85,170.56,96.73,169.23,95.4,167.81Z" transform="translate(0.22 0.16)"/><path class="cls-4" d="M177.68,132.27c4.63,0,9.25,0,13.88,0,5.47,0,9,3.67,9,9.22s-3.59,9-9,9.06q-13.87,0-27.77,0c-5.46,0-9-3.68-9-9.22s3.58-9,9-9.06h13.89Z" transform="translate(0.22 0.16)"/><path class="cls-4" d="M177.68,159.72c4.63,0,9.25,0,13.88,0,5.47,0,9,3.67,9,9.21s-3.59,9.05-9,9.06q-13.87,0-27.77,0c-5.46,0-9-3.68-9-9.22s3.58-9,9-9.06h13.89Z" transform="translate(0.22 0.16)"/></svg>